<svg width="36" height="36" viewBox="0 0 36 36" fill="none" xmlns="http://www.w3.org/2000/svg">
<rect width="36" height="36" rx="8" fill="white" fill-opacity="0.2"/>
<rect x="0.5" y="0.5" width="35" height="35" rx="7.5" stroke="white" stroke-opacity="0.1"/>
<mask id="mask0_803_23813" style="mask-type:alpha" maskUnits="userSpaceOnUse" x="9" y="9" width="18" height="18">
<rect x="9" y="9" width="18" height="18" fill="#D9D9D9"/>
</mask>
<g mask="url(#mask0_803_23813)">
<path d="M12 23.25V21.75H13.5V16.5C13.5 15.4625 13.8125 14.5405 14.4375 13.734C15.0625 12.928 15.875 12.4 16.875 12.15V11.625C16.875 11.3125 16.9845 11.047 17.2035 10.8285C17.422 10.6095 17.6875 10.5 18 10.5C18.3125 10.5 18.578 10.6095 18.7965 10.8285C19.0155 11.047 19.125 11.3125 19.125 11.625V12.15C20.125 12.4 20.9375 12.928 21.5625 13.734C22.1875 14.5405 22.5 15.4625 22.5 16.5V21.75H24V23.25H12ZM18 25.5C17.5875 25.5 17.2345 25.3533 16.941 25.0597C16.647 24.7657 16.5 24.4125 16.5 24H19.5C19.5 24.4125 19.3533 24.7657 19.0598 25.0597C18.7657 25.3533 18.4125 25.5 18 25.5ZM15 21.75H21V16.5C21 15.675 20.7063 14.9688 20.1187 14.3813C19.5312 13.7938 18.825 13.5 18 13.5C17.175 13.5 16.4688 13.7938 15.8813 14.3813C15.2938 14.9688 15 15.675 15 16.5V21.75Z" fill="white"/>
</g>
</svg>
