<svg width="25" height="24" viewBox="0 0 25 24" fill="none" xmlns="http://www.w3.org/2000/svg">
<g id="shopping_bag">
<mask id="mask0_1013_143" style="mask-type:alpha" maskUnits="userSpaceOnUse" x="0" y="0" width="25" height="24">
<rect id="Bounding box" x="0.333496" width="24" height="24" fill="#D9D9D9"/>
</mask>
<g mask="url(#mask0_1013_143)">
<path id="shopping_bag_2" d="M6.3335 22C5.7835 22 5.31266 21.8042 4.921 21.4125C4.52933 21.0208 4.3335 20.55 4.3335 20V8C4.3335 7.45 4.52933 6.97917 4.921 6.5875C5.31266 6.19583 5.7835 6 6.3335 6H8.3335C8.3335 4.9 8.72516 3.95833 9.5085 3.175C10.2918 2.39167 11.2335 2 12.3335 2C13.4335 2 14.3752 2.39167 15.1585 3.175C15.9418 3.95833 16.3335 4.9 16.3335 6H18.3335C18.8835 6 19.3543 6.19583 19.746 6.5875C20.1377 6.97917 20.3335 7.45 20.3335 8V20C20.3335 20.55 20.1377 21.0208 19.746 21.4125C19.3543 21.8042 18.8835 22 18.3335 22H6.3335ZM6.3335 20H18.3335V8H16.3335V10C16.3335 10.2833 16.2377 10.5208 16.046 10.7125C15.8543 10.9042 15.6168 11 15.3335 11C15.0502 11 14.8127 10.9042 14.621 10.7125C14.4293 10.5208 14.3335 10.2833 14.3335 10V8H10.3335V10C10.3335 10.2833 10.2377 10.5208 10.046 10.7125C9.85433 10.9042 9.61683 11 9.3335 11C9.05016 11 8.81266 10.9042 8.621 10.7125C8.42933 10.5208 8.3335 10.2833 8.3335 10V8H6.3335V20ZM10.3335 6H14.3335C14.3335 5.45 14.1377 4.97917 13.746 4.5875C13.3543 4.19583 12.8835 4 12.3335 4C11.7835 4 11.3127 4.19583 10.921 4.5875C10.5293 4.97917 10.3335 5.45 10.3335 6Z" fill="#3C3C43" fill-opacity="0.6"/>
</g>
</g>
</svg>
