<svg width="44" height="44" viewBox="0 0 44 44" fill="none" xmlns="http://www.w3.org/2000/svg">
<rect x="0.5" y="0.5" width="43" height="43" rx="21.5" fill="white"/>
<rect x="0.5" y="0.5" width="43" height="43" rx="21.5" stroke="#F3F4F6"/>
<g clip-path="url(#clip0_813_392)">
<path d="M33.7663 22.2765C33.7663 21.4608 33.7001 20.6406 33.559 19.8381H22.2402V24.4591H28.722C28.453 25.9495 27.5888 27.2679 26.3233 28.1056V31.104H30.1903C32.4611 29.014 33.7663 25.9274 33.7663 22.2765Z" fill="#4285F4"/>
<path d="M22.2401 34.0008C25.4766 34.0008 28.2059 32.9382 30.1945 31.1039L26.3276 28.1055C25.2517 28.8375 23.8627 29.252 22.2445 29.252C19.1139 29.252 16.4595 27.1399 15.507 24.3003H11.5166V27.3912C13.5537 31.4434 17.7029 34.0008 22.2401 34.0008Z" fill="#34A853"/>
<path d="M15.5028 24.3002C15.0001 22.8099 15.0001 21.196 15.5028 19.7057V16.6147H11.5167C9.81473 20.0055 9.81473 24.0004 11.5167 27.3912L15.5028 24.3002Z" fill="#FBBC04"/>
<path d="M22.2401 14.7497C23.9509 14.7232 25.6044 15.367 26.8434 16.5487L30.2695 13.1226C28.1001 11.0855 25.2208 9.96553 22.2401 10.0008C17.7029 10.0008 13.5537 12.5582 11.5166 16.6148L15.5026 19.7058C16.4506 16.8617 19.1095 14.7497 22.2401 14.7497Z" fill="#EA4335"/>
</g>
<defs>
<clipPath id="clip0_813_392">
<rect width="24" height="24" fill="white" transform="translate(10 10)"/>
</clipPath>
</defs>
</svg>
