<svg width="25" height="24" viewBox="0 0 25 24" fill="none" xmlns="http://www.w3.org/2000/svg">
<g id="move_to_inbox">
<mask id="mask0_1013_138" style="mask-type:alpha" maskUnits="userSpaceOnUse" x="0" y="0" width="25" height="24">
<rect id="Bounding box" x="0.666504" width="24" height="24" fill="#D9D9D9"/>
</mask>
<g mask="url(#mask0_1013_138)">
<path id="move_to_inbox_2" d="M11.6665 10.15V7C11.6665 6.71667 11.7623 6.47917 11.954 6.2875C12.1457 6.09583 12.3832 6 12.6665 6C12.9498 6 13.1873 6.09583 13.379 6.2875C13.5707 6.47917 13.6665 6.71667 13.6665 7V10.15L14.5415 9.275C14.6415 9.175 14.754 9.1 14.879 9.05C15.004 9 15.129 8.97917 15.254 8.9875C15.379 8.99583 15.504 9.025 15.629 9.075C15.754 9.125 15.8665 9.2 15.9665 9.3C16.1498 9.5 16.2457 9.73333 16.254 10C16.2623 10.2667 16.1665 10.5 15.9665 10.7L13.3665 13.3C13.2665 13.4 13.1582 13.4708 13.0415 13.5125C12.9248 13.5542 12.7998 13.575 12.6665 13.575C12.5332 13.575 12.4082 13.5542 12.2915 13.5125C12.1748 13.4708 12.0665 13.4 11.9665 13.3L9.3665 10.7C9.2665 10.6 9.1915 10.4875 9.1415 10.3625C9.0915 10.2375 9.0665 10.1125 9.0665 9.9875C9.0665 9.8625 9.0915 9.74167 9.1415 9.625C9.1915 9.50833 9.2665 9.4 9.3665 9.3C9.5665 9.1 9.804 8.99583 10.079 8.9875C10.354 8.97917 10.5915 9.075 10.7915 9.275L11.6665 10.15ZM5.6665 21C5.1165 21 4.64567 20.8042 4.254 20.4125C3.86234 20.0208 3.6665 19.55 3.6665 19V5C3.6665 4.45 3.86234 3.97917 4.254 3.5875C4.64567 3.19583 5.1165 3 5.6665 3H19.6665C20.2165 3 20.6873 3.19583 21.079 3.5875C21.4707 3.97917 21.6665 4.45 21.6665 5V19C21.6665 19.55 21.4707 20.0208 21.079 20.4125C20.6873 20.8042 20.2165 21 19.6665 21H5.6665ZM5.6665 19H19.6665V16H16.6665C16.1665 16.6333 15.5707 17.125 14.879 17.475C14.1873 17.825 13.4498 18 12.6665 18C11.8832 18 11.1457 17.825 10.454 17.475C9.76234 17.125 9.1665 16.6333 8.6665 16H5.6665V19ZM12.6665 16C13.1998 16 13.6915 15.8625 14.1415 15.5875C14.5915 15.3125 14.9582 14.95 15.2415 14.5C15.3415 14.35 15.4665 14.2292 15.6165 14.1375C15.7665 14.0458 15.9332 14 16.1165 14H19.6665V5H5.6665V14H9.2165C9.39984 14 9.5665 14.0458 9.7165 14.1375C9.8665 14.2292 9.9915 14.35 10.0915 14.5C10.3748 14.95 10.7415 15.3125 11.1915 15.5875C11.6415 15.8625 12.1332 16 12.6665 16Z" fill="#3C3C43" fill-opacity="0.6"/>
</g>
</g>
</svg>
