<svg width="32" height="32" viewBox="0 0 32 32" fill="none" xmlns="http://www.w3.org/2000/svg">
<g id="Shalat-Shubuh">
<g id="Shape">
<path d="M16.1411 4C16.8459 4 17.4172 4.59695 17.4172 5.33333V6.66667C17.4172 7.40305 16.8459 8 16.1411 8C15.4364 8 14.865 7.40305 14.865 6.66667V5.33333C14.865 4.59695 15.4364 4 16.1411 4Z" fill="white"/>
<path d="M28.9018 17.3333C28.9018 18.0697 28.3305 18.6667 27.6258 18.6667H26.3497C25.6449 18.6667 25.0736 18.0697 25.0736 17.3333C25.0736 16.597 25.6449 16 26.3497 16H27.6258C28.3305 16 28.9018 16.597 28.9018 17.3333Z" fill="white"/>
<path d="M5.93252 18.6667C6.63727 18.6667 7.20859 18.0697 7.20859 17.3333C7.20859 16.597 6.63727 16 5.93252 16H4.65644C3.95169 16 3.38037 16.597 3.38037 17.3333C3.38037 18.0697 3.95169 18.6667 4.65644 18.6667H5.93252Z" fill="white"/>
<path d="M9.82487 10.7337C9.32653 11.2544 8.51856 11.2544 8.02023 10.7337L7.11791 9.79086C6.61957 9.27016 6.61957 8.42594 7.11791 7.90524C7.61624 7.38454 8.42421 7.38454 8.92255 7.90524L9.82487 8.84805C10.3232 9.36875 10.3232 10.213 9.82487 10.7337Z" fill="white"/>
<path d="M23.3597 7.90524L22.4573 8.84805C21.959 9.36875 21.959 10.213 22.4573 10.7337C22.9557 11.2544 23.7637 11.2544 24.262 10.7337L25.1643 9.79086C25.6626 9.27016 25.6626 8.42594 25.1643 7.90524C24.666 7.38454 23.858 7.38454 23.3597 7.90524Z" fill="white"/>
<path d="M26.3497 25.3333C26.3497 26.0697 25.7784 26.6667 25.0736 26.6667H7.20859C6.50384 26.6667 5.93252 26.0697 5.93252 25.3333C5.93252 24.597 6.50384 24 7.20859 24H25.0736C25.7784 24 26.3497 24.597 26.3497 25.3333Z" fill="white"/>
<path d="M12.1706 19.4738C11.3021 17.7163 11.5751 15.5045 12.983 14.0335C14.7272 12.2111 17.555 12.2111 19.2992 14.0335C20.7071 15.5045 20.9801 17.7163 20.1116 19.4738C19.7882 20.1281 20.0337 20.9324 20.6599 21.2703C21.2861 21.6081 22.0559 21.3516 22.3793 20.6973C23.7426 17.9385 23.3197 14.4632 21.1039 12.1479C18.363 9.28404 13.9192 9.28404 11.1783 12.1479C8.96248 14.4632 8.53961 17.9385 9.90296 20.6973C10.2263 21.3516 10.9961 21.6081 11.6223 21.2703C12.2485 20.9324 12.494 20.1281 12.1706 19.4738Z" fill="white"/>
</g>
</g>
</svg>
