<svg width="32" height="32" viewBox="0 0 32 32" fill="none" xmlns="http://www.w3.org/2000/svg">
<g id="Shalat-Zhuhur">
<g id="Shape">
<path d="M16.1411 2.66675C16.8459 2.66675 17.4172 3.2637 17.4172 4.00008V5.33341C17.4172 6.06979 16.8459 6.66675 16.1411 6.66675C15.4364 6.66675 14.865 6.06979 14.865 5.33341V4.00008C14.865 3.2637 15.4364 2.66675 16.1411 2.66675Z" fill="white"/>
<path d="M16.1411 25.3334C16.8459 25.3334 17.4172 25.9304 17.4172 26.6667V28.0001C17.4172 28.7365 16.8459 29.3334 16.1411 29.3334C15.4364 29.3334 14.865 28.7365 14.865 28.0001V26.6667C14.865 25.9304 15.4364 25.3334 16.1411 25.3334Z" fill="white"/>
<path d="M27.6258 17.3334C28.3305 17.3334 28.9018 16.7365 28.9018 16.0001C28.9018 15.2637 28.3305 14.6667 27.6258 14.6667H26.3497C25.6449 14.6667 25.0736 15.2637 25.0736 16.0001C25.0736 16.7365 25.6449 17.3334 26.3497 17.3334H27.6258Z" fill="white"/>
<path d="M7.20859 16.0001C7.20859 16.7365 6.63727 17.3334 5.93252 17.3334H4.65644C3.95169 17.3334 3.38037 16.7365 3.38037 16.0001C3.38037 15.2637 3.95169 14.6667 4.65644 14.6667H5.93252C6.63727 14.6667 7.20859 15.2637 7.20859 16.0001Z" fill="white"/>
<path d="M22.4573 24.4854L23.3597 25.4282C23.858 25.9489 24.666 25.9489 25.1643 25.4282C25.6626 24.9075 25.6626 24.0633 25.1643 23.5426L24.262 22.5997C23.7637 22.079 22.9557 22.079 22.4573 22.5997C21.959 23.1204 21.959 23.9647 22.4573 24.4854Z" fill="white"/>
<path d="M9.82487 9.40042C9.32653 9.92112 8.51856 9.92112 8.02022 9.40042L7.1179 8.45761C6.61957 7.93691 6.61957 7.09269 7.1179 6.57199C7.61624 6.05129 8.42421 6.05129 8.92254 6.57199L9.82487 7.5148C10.3232 8.0355 10.3232 8.87972 9.82487 9.40042Z" fill="white"/>
<path d="M7.11791 23.5426C6.61957 24.0633 6.61957 24.9075 7.11791 25.4282C7.61624 25.9489 8.42421 25.9489 8.92255 25.4282L9.82487 24.4854C10.3232 23.9647 10.3232 23.1204 9.82487 22.5997C9.32653 22.079 8.51856 22.079 8.02023 22.5997L7.11791 23.5426Z" fill="white"/>
<path d="M22.4574 9.40042C21.959 8.87972 21.959 8.0355 22.4574 7.5148L23.3597 6.57199C23.858 6.05129 24.666 6.05129 25.1643 6.57199C25.6626 7.09269 25.6626 7.93691 25.1643 8.45761L24.262 9.40042C23.7637 9.92112 22.9557 9.92112 22.4574 9.40042Z" fill="white"/>
<path fill-rule="evenodd" clip-rule="evenodd" d="M16.1411 8.66675C12.2649 8.66675 9.1227 11.95 9.1227 16.0001C9.1227 20.0502 12.2649 23.3334 16.1411 23.3334C20.0173 23.3334 23.1595 20.0502 23.1595 16.0001C23.1595 11.95 20.0173 8.66675 16.1411 8.66675ZM11.6749 16.0001C11.6749 13.4228 13.6745 11.3334 16.1411 11.3334C18.6078 11.3334 20.6074 13.4228 20.6074 16.0001C20.6074 18.5774 18.6078 20.6667 16.1411 20.6667C13.6745 20.6667 11.6749 18.5774 11.6749 16.0001Z" fill="white"/>
</g>
</g>
</svg>
