<svg width="32" height="32" viewBox="0 0 32 32" fill="none" xmlns="http://www.w3.org/2000/svg">
<g id="Shalat-Isya">
<path id="Shape" fill-rule="evenodd" clip-rule="evenodd" d="M15.6533 6.03867C15.941 6.45617 15.9731 7.00936 15.7359 7.46017C15.236 8.41025 14.9511 9.5017 14.9511 10.6667C14.9511 14.3486 17.8077 17.3333 21.3314 17.3333C22.4464 17.3333 23.4909 17.0357 24.4002 16.5133C24.8317 16.2654 25.3611 16.299 25.7607 16.5996C26.1602 16.9002 26.3587 17.4142 26.2705 17.9203C25.4043 22.8949 21.2386 26.6667 16.2271 26.6667C10.5891 26.6667 6.01855 21.891 6.01855 16C6.01855 10.7637 9.62833 6.41109 14.3893 5.50596C14.8737 5.41386 15.3656 5.62117 15.6533 6.03867ZM12.5438 8.98444C10.1757 10.345 8.5707 12.9775 8.5707 16C8.5707 20.4183 11.9986 24 16.2271 24C19.1199 24 21.6393 22.323 22.9414 19.8486C22.4188 19.9481 21.8807 20 21.3314 20C16.3981 20 12.3989 15.8213 12.3989 10.6667C12.3989 10.0927 12.4486 9.53047 12.5438 8.98444Z" fill="white"/>
</g>
</svg>
