<svg width="32" height="32" viewBox="0 0 32 32" fill="none" xmlns="http://www.w3.org/2000/svg">
<g id="Shalat-Ashar">
<g id="Shape">
<path d="M17.4602 4.00008C17.4602 3.2637 16.8888 2.66675 16.1841 2.66675C15.4793 2.66675 14.908 3.2637 14.908 4.00008V5.33341C14.908 6.06979 15.4793 6.66675 16.1841 6.66675C16.8888 6.66675 17.4602 6.06979 17.4602 5.33341V4.00008Z" fill="white"/>
<path d="M17.4602 21.3334C17.4602 20.597 16.8888 20.0001 16.1841 20.0001C15.4793 20.0001 14.908 20.597 14.908 21.3334V24.7811L14.5342 24.3906C14.0359 23.8699 13.2279 23.8699 12.7296 24.3906C12.2313 24.9113 12.2313 25.7555 12.7296 26.2762L15.2818 28.9429C15.7801 29.4636 16.5881 29.4636 17.0864 28.9429L19.6385 26.2762C20.1369 25.7555 20.1369 24.9113 19.6385 24.3906C19.1402 23.8699 18.3322 23.8699 17.8339 24.3906L17.4602 24.7811V21.3334Z" fill="white"/>
<path d="M27.6687 17.3334C28.3735 17.3334 28.9448 16.7365 28.9448 16.0001C28.9448 15.2637 28.3735 14.6667 27.6687 14.6667H26.3927C25.6879 14.6667 25.1166 15.2637 25.1166 16.0001C25.1166 16.7365 25.6879 17.3334 26.3927 17.3334H27.6687Z" fill="white"/>
<path d="M7.25156 16.0001C7.25156 16.7365 6.68024 17.3334 5.97549 17.3334H4.69941C3.99466 17.3334 3.42334 16.7365 3.42334 16.0001C3.42334 15.2637 3.99466 14.6667 4.69941 14.6667H5.97549C6.68024 14.6667 7.25156 15.2637 7.25156 16.0001Z" fill="white"/>
<path d="M25.2073 23.5426L24.305 22.5997C23.8066 22.079 22.9987 22.079 22.5003 22.5997C22.002 23.1204 22.002 23.9647 22.5003 24.4854L23.4026 25.4282C23.901 25.9489 24.7089 25.9489 25.2073 25.4282C25.7056 24.9075 25.7056 24.0633 25.2073 23.5426Z" fill="white"/>
<path d="M9.86783 9.40042C9.3695 9.92112 8.56153 9.92112 8.06319 9.40042L7.16087 8.45761C6.66253 7.93691 6.66253 7.09269 7.16087 6.57199C7.65921 6.05129 8.46718 6.05129 8.96551 6.57199L9.86783 7.5148C10.3662 8.0355 10.3662 8.87972 9.86783 9.40042Z" fill="white"/>
<path d="M7.16087 23.5426C6.66254 24.0633 6.66254 24.9075 7.16087 25.4282C7.65921 25.9489 8.46718 25.9489 8.96551 25.4282L9.86783 24.4854C10.3662 23.9647 10.3662 23.1204 9.86783 22.5997C9.3695 22.079 8.56153 22.079 8.06319 22.5997L7.16087 23.5426Z" fill="white"/>
<path d="M22.5003 9.40042C22.002 8.87972 22.002 8.0355 22.5003 7.5148L23.4026 6.57199C23.901 6.05129 24.7089 6.05129 25.2073 6.57199C25.7056 7.09269 25.7056 7.93691 25.2073 8.45761L24.305 9.40042C23.8066 9.92112 22.9987 9.92112 22.5003 9.40042Z" fill="white"/>
<path d="M12.2136 18.1406C11.3451 16.383 11.6181 14.1713 13.0259 12.7002C14.7701 10.8778 17.598 10.8778 19.3422 12.7002C20.75 14.1713 21.0231 16.383 20.1545 18.1406C19.8312 18.7949 20.0767 19.5992 20.7029 19.937C21.3291 20.2749 22.0989 20.0184 22.4222 19.3641C23.7856 16.6052 23.3627 13.1299 21.1468 10.8146C18.406 7.95079 13.9622 7.95079 11.2213 10.8146C9.00544 13.1299 8.58257 16.6052 9.94593 19.3641C10.2693 20.0184 11.039 20.2749 11.6652 19.937C12.2914 19.5992 12.5369 18.7949 12.2136 18.1406Z" fill="white"/>
</g>
</g>
</svg>
