<svg width="32" height="32" viewBox="0 0 32 32" fill="none" xmlns="http://www.w3.org/2000/svg">
<g id="Shalat-Maghrib">
<g id="Shape">
<path d="M15.7174 7.30904C15.9546 6.85824 15.9225 6.30505 15.6348 5.88755C15.3471 5.47005 14.8552 5.26274 14.3708 5.35483C10.1417 6.15885 6.93519 10.0249 6.93519 14.6763C6.93519 17.044 7.76805 19.2118 9.14267 20.8723C9.60373 21.4292 10.4096 21.4901 10.9426 21.0084C11.4756 20.5266 11.5339 19.6846 11.0729 19.1277C10.0842 17.9334 9.48734 16.3793 9.48734 14.6763C9.48734 12.2311 10.7217 10.0857 12.575 8.88514C12.526 9.25769 12.5008 9.63792 12.5008 10.024C12.5008 14.6145 16.0622 18.3357 20.4555 18.3357C20.825 18.3357 21.1889 18.3093 21.5454 18.2582C21.3633 18.565 21.1585 18.8556 20.9333 19.1277C20.4722 19.6846 20.5305 20.5266 21.0636 21.0084C21.5966 21.4901 22.4024 21.4292 22.8635 20.8723C23.8994 19.621 24.6283 18.081 24.9242 16.3818C25.0124 15.8757 24.8139 15.3617 24.4144 15.0611C24.0148 14.7605 23.4854 14.7269 23.0539 14.9748C22.2842 15.417 21.4 15.6691 20.4555 15.6691C17.4718 15.6691 15.0529 13.1417 15.0529 10.024C15.0529 9.03723 15.2942 8.1133 15.7174 7.30904Z" fill="white"/>
<path d="M24.9448 26.6666C25.6496 26.6666 26.2209 26.0697 26.2209 25.3333C26.2209 24.5969 25.6496 24 24.9448 24H7.07978C6.37503 24 5.80371 24.5969 5.80371 25.3333C5.80371 26.0697 6.37503 26.6666 7.07978 26.6666L24.9448 26.6666Z" fill="white"/>
</g>
</g>
</svg>
