<svg width="41" height="41" viewBox="0 0 41 41" fill="none" xmlns="http://www.w3.org/2000/svg">
<mask id="mask0_814_1081" style="mask-type:alpha" maskUnits="userSpaceOnUse" x="0" y="0" width="41" height="41">
<rect x="0.51709" y="0.631348" width="40" height="40" fill="#D9D9D9"/>
</mask>
<g mask="url(#mask0_814_1081)">
<path d="M16.7779 17.8129L19.6454 16.3727C19.927 16.2353 20.2154 16.1665 20.5104 16.1665C20.8055 16.1665 21.0984 16.2353 21.389 16.3727L24.2565 17.8129V8.55856H16.7779V17.8129ZM13.4338 28.5479C13.0791 28.5479 12.7821 28.4282 12.5428 28.1889C12.3035 27.9496 12.1839 27.6526 12.1839 27.2979C12.1839 26.9432 12.3035 26.6462 12.5428 26.4069C12.7821 26.1676 13.0791 26.0479 13.4338 26.0479H19.2673C19.6219 26.0479 19.9189 26.1676 20.1583 26.4069C20.3976 26.6462 20.5172 26.9432 20.5172 27.2979C20.5172 27.6526 20.3976 27.9496 20.1583 28.1889C19.9189 28.4282 19.6219 28.5479 19.2673 28.5479H13.4338ZM8.95742 34.7979C8.24109 34.7979 7.62753 34.5425 7.11675 34.0317C6.60597 33.5209 6.35059 32.9074 6.35059 32.191V9.07143C6.35059 8.3551 6.60597 7.74154 7.11675 7.23077C7.62753 6.71999 8.24109 6.4646 8.95742 6.4646H32.077C32.7933 6.4646 33.4069 6.71999 33.9177 7.23077C34.4284 7.74154 34.6838 8.3551 34.6838 9.07143V32.191C34.6838 32.9074 34.4284 33.5209 33.9177 34.0317C33.4069 34.5425 32.7933 34.7979 32.077 34.7979H8.95742ZM8.95742 32.7039H32.077C32.2052 32.7039 32.3228 32.6505 32.4296 32.5436C32.5364 32.4368 32.5899 32.3192 32.5899 32.191V9.07143C32.5899 8.94321 32.5364 8.82569 32.4296 8.71885C32.3228 8.61199 32.2052 8.55856 32.077 8.55856H26.3505V19.4774C26.3505 19.8897 26.1828 20.1981 25.8473 20.4026C25.5118 20.607 25.1696 20.6173 24.8206 20.4335L20.5172 18.2957L16.2245 20.4335C15.8684 20.6173 15.5226 20.607 15.1871 20.4026C14.8517 20.1981 14.6839 19.8897 14.6839 19.4774V8.55856H8.95742C8.8292 8.55856 8.71167 8.61199 8.60484 8.71885C8.49797 8.82569 8.44454 8.94321 8.44454 9.07143V32.191C8.44454 32.3192 8.49797 32.4368 8.60484 32.5436C8.71167 32.6505 8.8292 32.7039 8.95742 32.7039Z" fill="url(#paint0_linear_814_1081)"/>
</g>
<defs>
<linearGradient id="paint0_linear_814_1081" x1="20.5172" y1="6.4646" x2="8.54072" y2="54.9163" gradientUnits="userSpaceOnUse">
<stop stop-color="#C49A6C"/>
<stop offset="1" stop-color="#885B2B"/>
</linearGradient>
</defs>
</svg>
