<svg width="32" height="32" viewBox="0 0 32 32" fill="none" xmlns="http://www.w3.org/2000/svg">
<path d="M29.1947 5.99753C28.8378 5.99753 28.4959 6.06441 28.1815 6.18692C28.1803 6.18692 28.179 6.18692 28.1784 6.18567C27.8715 4.96618 26.7639 4.06109 25.4494 4.06422C23.8936 4.06797 22.6491 5.36622 22.6491 6.92262V8.7128C22.6491 8.7128 22.6478 8.7153 22.646 8.71467C22.3416 8.60779 22.014 8.55153 21.6721 8.55716C20.1313 8.58153 18.91 9.87228 18.91 11.4131V19.0138C18.91 19.0138 18.91 19.0151 18.9093 19.0157L17.7124 20.2127C16.9804 20.9446 16.4172 21.6447 16.0022 22.3573C16.0016 22.3585 15.9991 22.3585 15.9984 22.3573C15.5834 21.6447 15.0202 20.9446 14.2883 20.2127L13.0913 19.0157C13.0913 19.0157 13.0907 19.0144 13.0907 19.0138V11.4131C13.0907 9.87228 11.8693 8.58091 10.3285 8.55716C9.98723 8.55153 9.65906 8.60779 9.35528 8.71467C9.35403 8.71467 9.35216 8.71467 9.35216 8.7128V6.92262C9.35216 5.36684 8.10829 4.06797 6.55189 4.06422C5.23738 4.06109 4.13041 4.96618 3.82288 6.18567C3.82288 6.18692 3.821 6.18755 3.81975 6.18692C3.48159 6.05566 3.11218 5.98816 2.72589 5.99878C1.19949 6.04191 0 7.32704 0 8.85406V21.926C0 21.926 6.10425e-07 21.9272 0.000625672 21.9278L6.45938 28.3866C6.45938 28.3866 6.46 28.3878 6.46 28.3885V31.8069C6.46 31.9151 6.54751 32.0019 6.65502 32.0019H25.345C25.4531 32.0019 25.54 31.9144 25.54 31.8069V28.3885C25.54 28.3885 25.54 28.3872 25.5406 28.3866L31.9994 21.9278C31.9994 21.9278 32 21.9266 32 21.926V8.80406C32 7.2564 30.7411 5.99753 29.1935 5.99753H29.1947ZM24.5249 6.87074C24.5249 6.34194 24.9674 5.91502 25.5012 5.94003C26.0032 5.96378 26.3882 6.39757 26.3882 6.89949V13.8977C26.3882 13.8977 26.387 13.9002 26.3851 13.8996C25.7881 13.6808 25.1325 13.6658 24.528 13.8558C24.5268 13.8558 24.5249 13.8558 24.5249 13.8539V6.87012V6.87074ZM20.7864 11.3631C20.7864 10.8343 21.2289 10.4073 21.7627 10.4323C22.2647 10.4561 22.6497 10.8899 22.6497 11.3918V15.2747C22.6497 15.2747 22.6497 15.2759 22.6491 15.2766L20.7902 17.1355C20.7902 17.1355 20.7864 17.1355 20.7864 17.1336V11.3631ZM10.3291 10.4323C10.8311 10.4561 11.2161 10.8899 11.2161 11.3918V17.1336C11.2161 17.1336 11.2136 17.1367 11.2123 17.1355L9.35342 15.2766C9.35342 15.2766 9.35279 15.2753 9.35279 15.2747V11.3624C9.35279 10.8336 9.79533 10.4067 10.3291 10.4317V10.4323ZM5.6143 6.87074C5.6143 6.34194 6.05684 5.91502 6.59064 5.94003C7.09256 5.96378 7.47761 6.39757 7.47761 6.89949V13.8545C7.47761 13.8545 7.47635 13.857 7.47448 13.8564C6.86942 13.6664 6.21436 13.6814 5.61742 13.9002C5.61617 13.9002 5.6143 13.9002 5.6143 13.8983V6.87074ZM15.0615 30.1268H8.33832C8.33832 30.1268 8.33581 30.1255 8.33581 30.1243V27.6115C8.33581 27.6115 8.33581 27.6103 8.33519 27.6096L1.87643 21.1509C1.87643 21.1509 1.87581 21.1496 1.87581 21.149V8.83281C1.87581 8.33088 2.26084 7.89647 2.76277 7.87334C3.29657 7.84834 3.73911 8.27525 3.73911 8.80406V16.5861H3.74036C3.73849 17.3243 4.01789 18.0625 4.57982 18.6244L9.36967 23.4142C9.44592 23.4905 9.56968 23.4905 9.64594 23.4142L10.6954 22.3648C10.7717 22.2885 10.7717 22.1647 10.6954 22.0885L5.90558 17.2986C5.51741 16.9105 5.51741 16.2785 5.90558 15.8897C6.29374 15.5016 6.92568 15.5016 7.31447 15.8897L12.9625 21.5378C14.4939 23.0692 15.0633 24.2743 15.0633 25.9839V30.1236C15.0633 30.1236 15.0621 30.1261 15.0608 30.1261L15.0615 30.1268ZM30.1267 21.1509L23.6673 27.6103C23.6673 27.6103 23.6667 27.6115 23.6667 27.6121V30.1249C23.6667 30.1249 23.6654 30.1274 23.6642 30.1274H16.941C16.941 30.1274 16.9385 30.1261 16.9385 30.1249V25.9851C16.9385 24.2756 17.508 23.0704 19.0394 21.539L24.6668 15.911C25.0287 15.5491 25.6113 15.4953 26.0107 15.8147C26.482 16.1917 26.5107 16.8842 26.0957 17.2993L21.3058 22.0891C21.2296 22.1654 21.2296 22.2891 21.3058 22.3654L22.3553 23.4149C22.4316 23.4911 22.5553 23.4911 22.6316 23.4149L27.4214 18.625C27.9834 18.0631 28.2634 17.3249 28.2609 16.5867H28.2621V8.83406C28.2621 8.33151 28.6472 7.89772 29.1491 7.87459C29.6829 7.84959 30.1254 8.2765 30.1254 8.80531V21.1515L30.1267 21.1509Z" fill="url(#paint0_linear_814_1059)"/>
<path d="M15.2527 0H16.7504C16.8548 0 16.9391 0.0843832 16.9391 0.188768V2.49899C16.9391 2.60338 16.8548 2.68776 16.7504 2.68776H15.2527C15.1483 2.68776 15.064 2.60338 15.064 2.49899V0.188768C15.064 0.0843832 15.1483 0 15.2527 0Z" fill="url(#paint1_linear_814_1059)"/>
<path d="M9.86245 2.85343L10.9213 1.79458C10.9951 1.72082 11.1144 1.72082 11.1882 1.79458L12.8215 3.42786C12.8952 3.50162 12.8952 3.621 12.8215 3.69476L11.7626 4.75362C11.6889 4.82737 11.5695 4.82737 11.4957 4.75362L9.86245 3.12033C9.78869 3.04657 9.78869 2.92719 9.86245 2.85343Z" fill="url(#paint2_linear_814_1059)"/>
<path d="M19.1769 3.42971L20.8108 1.7958C20.8846 1.72204 21.0033 1.72204 21.0771 1.7958L22.1366 2.85528C22.2103 2.92903 22.2103 3.04779 22.1366 3.12155L20.5027 4.75546C20.4289 4.82922 20.3101 4.82922 20.2364 4.75546L19.1769 3.69598C19.1031 3.62223 19.1031 3.50346 19.1769 3.42971Z" fill="url(#paint3_linear_814_1059)"/>
<defs>
<linearGradient id="paint0_linear_814_1059" x1="16" y1="4.06421" x2="5.54671" y2="52.5028" gradientUnits="userSpaceOnUse">
<stop stop-color="#C49A6C"/>
<stop offset="1" stop-color="#885B2B"/>
</linearGradient>
<linearGradient id="paint1_linear_814_1059" x1="16.0016" y1="-7.92309e-08" x2="14.4663" y2="4.33315" gradientUnits="userSpaceOnUse">
<stop stop-color="#C49A6C"/>
<stop offset="1" stop-color="#885B2B"/>
</linearGradient>
<linearGradient id="paint2_linear_814_1059" x1="11.342" y1="1.73926" x2="10.0444" y2="6.9886" gradientUnits="userSpaceOnUse">
<stop stop-color="#C49A6C"/>
<stop offset="1" stop-color="#885B2B"/>
</linearGradient>
<linearGradient id="paint3_linear_814_1059" x1="20.6567" y1="1.74048" x2="19.3589" y2="6.99089" gradientUnits="userSpaceOnUse">
<stop stop-color="#C49A6C"/>
<stop offset="1" stop-color="#885B2B"/>
</linearGradient>
</defs>
</svg>
