<svg width="40" height="40" viewBox="0 0 40 40" fill="none" xmlns="http://www.w3.org/2000/svg">
<mask id="mask0_814_1087" style="mask-type:alpha" maskUnits="userSpaceOnUse" x="0" y="0" width="40" height="40">
<rect width="40" height="40" fill="#D9D9D9"/>
</mask>
<g mask="url(#mask0_814_1087)">
<path d="M8.06644 7.08325H31.9788C32.2755 7.08325 32.5241 7.18413 32.7248 7.38588C32.9255 7.58763 33.0258 7.83761 33.0258 8.13584C33.0258 8.43409 32.9255 8.68221 32.7248 8.88021C32.5241 9.07821 32.2755 9.17721 31.9788 9.17721H8.06644C7.76977 9.17721 7.52111 9.07634 7.32044 8.87459C7.11977 8.67284 7.01944 8.42284 7.01944 8.12459C7.01944 7.82636 7.11977 7.57825 7.32044 7.38025C7.52111 7.18225 7.76977 7.08325 8.06644 7.08325ZM8.49382 32.9165C8.12451 32.9165 7.81494 32.7916 7.56511 32.5418C7.3153 32.292 7.1904 31.9824 7.1904 31.6131V22.5554H6.30257C5.88973 22.5554 5.55308 22.3928 5.29261 22.0675C5.03216 21.7422 4.94823 21.376 5.04082 20.9689L6.78652 13.1142C6.85108 12.8087 7.00601 12.5605 7.25132 12.3696C7.49662 12.1787 7.76762 12.0833 8.06432 12.0833H31.9531C32.2498 12.0833 32.5208 12.1787 32.7661 12.3696C33.0115 12.5605 33.1664 12.8087 33.2309 13.1142L34.9767 20.9689C35.0764 21.3791 34.9934 21.7461 34.7277 22.0698C34.462 22.3936 34.1244 22.5554 33.7149 22.5554H32.8378V31.8695C32.8378 32.1662 32.7369 32.4148 32.5351 32.6155C32.3334 32.8162 32.0834 32.9165 31.7851 32.9165C31.4869 32.9165 31.2388 32.8162 31.0408 32.6155C30.8428 32.4148 30.7438 32.1662 30.7438 31.8695V22.5554H22.6519V31.6131C22.6519 31.9824 22.527 32.292 22.2771 32.5418C22.0273 32.7916 21.7178 32.9165 21.3485 32.9165H8.49382ZM9.28436 30.8225H20.5579V22.5554H9.28436V30.8225ZM7.22877 20.4615H32.7887L31.3752 14.1772H8.64227L7.22877 20.4615Z" fill="url(#paint0_linear_814_1087)"/>
</g>
<defs>
<linearGradient id="paint0_linear_814_1087" x1="20.0109" y1="7.08325" x2="10.4696" y2="51.929" gradientUnits="userSpaceOnUse">
<stop stop-color="#C49A6C"/>
<stop offset="1" stop-color="#885B2B"/>
</linearGradient>
</defs>
</svg>
