<svg width="32" height="32" viewBox="0 0 32 32" fill="none" xmlns="http://www.w3.org/2000/svg">
<path d="M30.2869 30.0423C30.1937 30.0423 30.1181 29.9667 30.1181 29.8736V7.45422C30.1181 4.78484 28.9081 2.10547 26.9606 0.460469L26.4625 0.0398438C26.3994 -0.0132812 26.3075 -0.0132812 26.245 0.0398438L25.7469 0.460469C23.7994 2.10484 22.5894 4.78484 22.5894 7.45422V13.6948C22.5894 13.8592 22.3788 13.9261 22.2838 13.7923C21.5144 12.7111 20.5588 11.7542 19.4438 10.9742L14.215 7.31422C14.1569 7.27359 14.0794 7.27359 14.0212 7.31422L8.79251 10.9742C5.64439 13.178 3.765 16.788 3.765 20.6305V22.3442C3.765 22.4373 3.68938 22.513 3.59625 22.513H2.05125C1.95813 22.513 1.88249 22.5886 1.88249 22.6817V29.8736C1.88249 29.9667 1.80687 30.0423 1.71375 30.0423H0.168747C0.0756219 30.0423 0 30.118 0 30.2111V31.7561C0 31.8492 0.0756219 31.9248 0.168747 31.9248H31.8312C31.9244 31.9248 32 31.8492 32 31.7561V30.2111C32 30.118 31.9244 30.0423 31.8312 30.0423H30.2869ZM28.0669 9.33672H24.64C24.5469 9.33672 24.4713 9.26109 24.4713 9.16797V7.62297C24.4713 7.52984 24.5469 7.45422 24.64 7.45422H28.0669C28.16 7.45422 28.2356 7.52984 28.2356 7.62297V9.16797C28.2356 9.26109 28.16 9.33672 28.0669 9.33672ZM26.4831 2.63547C27.1387 3.40672 27.6369 4.34672 27.9312 5.35484C27.9631 5.46297 27.8819 5.57172 27.7694 5.57172H24.9381C24.825 5.57172 24.7444 5.46297 24.7762 5.35484C25.0706 4.34672 25.5681 3.40672 26.2244 2.63547C26.2925 2.55547 26.415 2.55547 26.4831 2.63547ZM9.8725 12.5167L14.0212 9.61234C14.0794 9.57172 14.1569 9.57172 14.215 9.61234L18.3637 12.5167C20.4294 13.9623 21.8437 16.1292 22.365 18.5461C22.3875 18.6505 22.3062 18.7486 22.1994 18.7486H6.03563C5.92875 18.7486 5.8475 18.6505 5.87 18.5461C6.39125 16.1292 7.80625 13.9623 9.87125 12.5167H9.8725ZM5.81625 20.6311H22.42C22.5131 20.6311 22.5887 20.7067 22.5887 20.7998V22.3448C22.5887 22.438 22.5131 22.5136 22.42 22.5136H5.81625C5.72313 22.5136 5.64749 22.438 5.64749 22.3448V20.7998C5.64749 20.7067 5.72313 20.6311 5.81625 20.6311ZM3.93375 24.3961H24.3019C24.395 24.3961 24.4706 24.4717 24.4706 24.5648V26.1098C24.4706 26.203 24.395 26.2786 24.3019 26.2786H18.5038C18.4588 26.2786 18.4162 26.2961 18.3844 26.328L14.7188 29.9936C14.6869 30.0255 14.6444 30.043 14.5994 30.043H3.93375C3.84062 30.043 3.765 29.9673 3.765 29.8742V24.5648C3.765 24.4717 3.84062 24.3961 3.93375 24.3961ZM17.6194 29.7548L19.1644 28.2098C19.1962 28.178 19.2388 28.1605 19.2838 28.1605H24.3025C24.3956 28.1605 24.4713 28.2361 24.4713 28.3292V29.8742C24.4713 29.9673 24.3956 30.043 24.3025 30.043H17.7394C17.5888 30.043 17.5131 29.8611 17.6194 29.7548ZM26.3531 29.8742V22.6823C26.3531 22.5892 26.2775 22.5136 26.1844 22.5136H24.6394C24.5462 22.5136 24.4706 22.438 24.4706 22.3448V11.388C24.4706 11.2948 24.5462 11.2192 24.6394 11.2192H28.0663C28.1594 11.2192 28.235 11.2948 28.235 11.388V29.8742C28.235 29.9673 28.1594 30.043 28.0663 30.043H26.5212C26.4281 30.043 26.3531 29.9673 26.3531 29.8742Z" fill="url(#paint0_linear_814_1072)"/>
<path d="M5.81622 26.2773H7.36122C7.45435 26.2773 7.52997 26.353 7.52997 26.4461V27.9911C7.52997 28.0842 7.45435 28.1598 7.36122 28.1598H5.81622C5.7231 28.1598 5.64746 28.0842 5.64746 27.9911V26.4461C5.64746 26.353 5.7231 26.2773 5.81622 26.2773Z" fill="url(#paint1_linear_814_1072)"/>
<path d="M9.58133 26.2773H11.1263C11.2195 26.2773 11.2951 26.353 11.2951 26.4461V27.9911C11.2951 28.0842 11.2195 28.1598 11.1263 28.1598H9.58133C9.4882 28.1598 9.4126 28.0842 9.4126 27.9911V26.4461C9.4126 26.353 9.4882 26.2773 9.58133 26.2773Z" fill="url(#paint2_linear_814_1072)"/>
<defs>
<linearGradient id="paint0_linear_814_1072" x1="16" y1="-9.41093e-07" x2="2.53339" y2="54.6083" gradientUnits="userSpaceOnUse">
<stop stop-color="#C49A6C"/>
<stop offset="1" stop-color="#885B2B"/>
</linearGradient>
<linearGradient id="paint1_linear_814_1072" x1="6.58871" y1="26.2773" x2="5.79298" y2="29.4965" gradientUnits="userSpaceOnUse">
<stop stop-color="#C49A6C"/>
<stop offset="1" stop-color="#885B2B"/>
</linearGradient>
<linearGradient id="paint2_linear_814_1072" x1="10.3539" y1="26.2773" x2="9.55812" y2="29.4965" gradientUnits="userSpaceOnUse">
<stop stop-color="#C49A6C"/>
<stop offset="1" stop-color="#885B2B"/>
</linearGradient>
</defs>
</svg>
