<svg width="28" height="32" viewBox="0 0 28 32" fill="none" xmlns="http://www.w3.org/2000/svg">
<path d="M21.9373 2.41616V0.221866C21.9373 0.0993711 21.8379 0 21.7154 0H16.5337C16.4112 0 16.3119 0.0993711 16.3119 0.221866V2.41616C16.3119 2.53865 16.2125 2.63802 16.09 2.63802H11.5364C11.4139 2.63802 11.3146 2.53865 11.3146 2.41616V0.221866C11.3146 0.0993711 11.2152 0 11.0927 0H5.91102C5.78853 0 5.68915 0.0993711 5.68915 0.221866V2.41616C5.68915 2.53865 5.58978 2.63802 5.46728 2.63802H0.221869C0.0993742 2.63802 0 2.73739 0 2.85989V27.9377C0 30.1813 1.81868 32 4.06234 32H23.561C25.8046 32 27.6233 30.1813 27.6233 27.9377V2.85926C27.6233 2.73677 27.5239 2.6374 27.4014 2.6374H22.156C22.0335 2.6374 21.9341 2.53803 21.9341 2.41553L21.9373 2.41616ZM18.4093 1.87555H19.8411C19.9636 1.87555 20.063 1.97492 20.063 2.09742V8.46217C20.063 8.58466 19.9636 8.68404 19.8411 8.68404H18.4093C18.2868 8.68404 18.1874 8.58466 18.1874 8.46217V2.09679C18.1874 1.9743 18.2868 1.87493 18.4093 1.87493V1.87555ZM16.3125 4.73419V8.46154C16.3125 8.58404 16.2131 8.68341 16.0906 8.68341H11.5371C11.4146 8.68341 11.3152 8.58404 11.3152 8.46154V4.73419C11.3152 4.61169 11.4146 4.51232 11.5371 4.51232H16.0906C16.2131 4.51232 16.3125 4.61169 16.3125 4.73419ZM7.7872 1.87555H9.21901C9.34151 1.87555 9.44088 1.97492 9.44088 2.09742V8.46217C9.44088 8.58466 9.34151 8.68404 9.21901 8.68404H7.7872C7.66471 8.68404 7.56533 8.58466 7.56533 8.46217V2.09679C7.56533 1.9743 7.66471 1.87493 7.7872 1.87493V1.87555ZM2.09867 4.51295H5.46916C5.59166 4.51295 5.69103 4.61232 5.69103 4.73482V8.46217C5.69103 8.58466 5.59166 8.68404 5.46916 8.68404H2.09867C1.97618 8.68404 1.8768 8.58466 1.8768 8.46217V4.73482C1.8768 4.61232 1.97618 4.51295 2.09867 4.51295ZM25.7509 27.937C25.7509 29.1432 24.7697 30.1244 23.5635 30.1244H4.06484C2.85677 30.1244 1.87743 29.1451 1.87743 27.937V10.7802C1.87743 10.6577 1.9768 10.5583 2.0993 10.5583H25.5296C25.6521 10.5583 25.7515 10.6577 25.7515 10.7802V27.937H25.7509ZM21.9373 8.46217V4.73482C21.9373 4.61232 22.0366 4.51295 22.1591 4.51295H25.5296C25.6521 4.51295 25.7515 4.61232 25.7515 4.73482V8.46217C25.7515 8.58466 25.6521 8.68404 25.5296 8.68404H22.1591C22.0366 8.68404 21.9373 8.58466 21.9373 8.46217Z" fill="url(#paint0_linear_814_1094)"/>
<path d="M20.1036 19.408C19.8887 19.3443 19.6593 19.4149 19.5093 19.5811C18.8374 20.3248 17.8725 20.7605 16.8632 20.7605C14.8989 20.7605 13.3014 19.1624 13.3014 17.1987C13.3014 16.1894 13.7364 15.2244 14.4801 14.5526C14.6464 14.4026 14.7164 14.1732 14.6532 13.9582L14.3789 13.0301C14.3076 12.7876 14.0858 12.6195 13.8333 12.6189C13.827 12.6189 13.8208 12.6189 13.8139 12.6189C9.50657 12.6189 6.02171 16.2063 6.19045 20.5505C6.34419 24.5103 9.55281 27.7189 13.5127 27.8727C17.8562 28.0408 21.4436 24.5559 21.4436 20.2486C21.4436 20.2423 21.4436 20.2355 21.4436 20.2292C21.443 19.9767 21.2749 19.7549 21.0324 19.6836L20.1043 19.4093L20.1036 19.408ZM13.5595 25.9965C10.5946 25.8684 8.1935 23.4672 8.06475 20.5023C7.94976 17.8556 9.63343 15.5769 11.9933 14.7882C11.6259 15.5294 11.4265 16.3538 11.4265 17.1987C11.4265 20.1967 13.8652 22.6354 16.8632 22.6354C17.7081 22.6354 18.5318 22.436 19.2737 22.0685C18.485 24.4284 16.2063 26.1115 13.5595 25.9971V25.9965Z" fill="url(#paint1_linear_814_1094)"/>
<path d="M17.9868 15.2681C18.5043 15.2681 18.9242 15.6881 18.9242 16.2055C18.9242 16.723 18.5043 17.143 17.9868 17.143C17.4693 17.143 17.0493 16.723 17.0493 16.2055C17.0493 15.6881 17.4693 15.2681 17.9868 15.2681Z" fill="url(#paint2_linear_814_1094)"/>
<defs>
<linearGradient id="paint0_linear_814_1094" x1="13.8116" y1="-9.43308e-07" x2="-1.55533" y2="53.6653" gradientUnits="userSpaceOnUse">
<stop stop-color="#C49A6C"/>
<stop offset="1" stop-color="#885B2B"/>
</linearGradient>
<linearGradient id="paint1_linear_814_1094" x1="13.8141" y1="12.6189" x2="7.36362" y2="38.7137" gradientUnits="userSpaceOnUse">
<stop stop-color="#C49A6C"/>
<stop offset="1" stop-color="#885B2B"/>
</linearGradient>
<linearGradient id="paint2_linear_814_1094" x1="17.9868" y1="15.2681" x2="17.1942" y2="18.4743" gradientUnits="userSpaceOnUse">
<stop stop-color="#C49A6C"/>
<stop offset="1" stop-color="#885B2B"/>
</linearGradient>
</defs>
</svg>
