<svg width="21" height="32" viewBox="0 0 21 32" fill="none" xmlns="http://www.w3.org/2000/svg">
<path d="M18.9056 26.1519C18.8087 26.0938 18.7494 25.99 18.7494 25.8775V24.9419C18.7494 23.155 17.7562 21.5488 16.1581 20.7494L13.3013 19.3213C13.1925 19.2669 13.1244 19.1563 13.1244 19.035V13.5669C13.1244 12.145 12.4956 10.8375 11.4331 9.96C11.3262 9.87188 11.2844 9.72313 11.3387 9.59563C11.4331 9.37375 11.5962 9.20063 11.7937 9.135C13.7119 8.49688 15 6.70938 15 4.68688C15 1.78938 12.4112 -0.404995 9.53187 0.0631302C7.305 0.425005 5.625 2.49938 5.625 4.8875V7.93063C5.625 8.01125 5.59374 8.08875 5.53937 8.14813C3.25374 10.6113 1.875 13.9231 1.875 17.49V22.785C1.875 24.0675 2.20188 25.2994 2.81563 26.3869C2.90625 26.5475 2.83938 26.7506 2.67313 26.83C1.09375 27.5844 0 29.1981 0 31.0625V32H17.2756C20.3162 32 21.6219 28.0838 19.1512 26.3125C19.0725 26.2563 18.9912 26.2025 18.9075 26.1525L18.9056 26.1519ZM15.3612 22.9263C15.435 22.7144 15.6981 22.6431 15.8706 22.7869C16.5012 23.3131 16.8737 24.0938 16.8737 24.9419C16.8737 25.1606 16.6594 25.315 16.4525 25.2456L15.0581 24.7806C14.8887 24.7244 14.7981 24.54 14.8569 24.3713L15.3606 22.9263H15.3612ZM7.49937 4.88688C7.49937 3.40813 8.5025 2.12938 9.8325 1.91313C11.6319 1.62001 13.1244 3.00438 13.1244 4.68625C13.1244 5.9 12.3512 6.9725 11.2012 7.35563C10.5587 7.56938 10.04 8.03 9.7225 8.62438C9.64125 8.77625 9.4525 8.83375 9.29875 8.75688L7.67625 7.94563C7.5675 7.89125 7.49937 7.78063 7.49937 7.65938V4.8875V4.88688ZM3.74937 17.4894C3.74937 14.6294 4.75499 11.9238 6.59874 9.77625C6.69499 9.66438 6.85438 9.63125 6.98625 9.69688L9.69436 11.0506C10.6537 11.53 11.2494 12.4944 11.2494 13.5663V20.1931C11.2494 20.3144 11.3181 20.425 11.4263 20.4794L13.5606 21.5469C13.7044 21.6188 13.7725 21.7869 13.72 21.9388L13.0756 23.7869C13.0181 23.9525 12.8381 24.0406 12.6719 23.985L9.59312 22.9588C9.4625 22.915 9.37437 22.7925 9.37437 22.655V14.3819C9.37437 14.205 9.23124 14.0619 9.05437 14.0619H7.81999C7.64312 14.0619 7.5 14.205 7.5 14.3819V24.0069C7.5 24.145 7.58812 24.2669 7.71875 24.3106L9.84625 25.02C10.0788 25.0975 10.1431 25.3988 9.95999 25.5613C8.70999 26.6688 6.9325 27.0725 5.26437 26.5163L5.205 26.4963C4.26563 25.4831 3.75 24.1744 3.75 22.785V17.49L3.74937 17.4894ZM17.3387 30.1244H2.53624C2.28686 30.1244 2.13562 29.8531 2.26187 29.6381C2.71875 28.8631 3.53687 28.325 4.48312 28.2569C4.52625 28.2538 4.56937 28.26 4.61 28.2744C4.84625 28.3569 5.66312 28.64 6.79062 28.64C8.85437 28.64 10.8281 27.6781 12.0963 25.9988C12.1788 25.8894 12.3219 25.845 12.4525 25.8881L17.6119 27.6081C17.8306 27.6813 18.0263 27.7963 18.1912 27.9425C19.0475 28.7031 18.4831 30.1244 17.3387 30.1244Z" fill="url(#paint0_linear_814_1071)"/>
<defs>
<linearGradient id="paint0_linear_814_1071" x1="10.2233" y1="-9.43308e-07" x2="-9.31557" y2="50.5069" gradientUnits="userSpaceOnUse">
<stop stop-color="#C49A6C"/>
<stop offset="1" stop-color="#885B2B"/>
</linearGradient>
</defs>
</svg>
