<svg width="32" height="32" viewBox="0 0 32 32" fill="none" xmlns="http://www.w3.org/2000/svg">
<path d="M27.3138 4.68625C24.2919 1.66438 20.2738 0 16 0C11.7262 0 7.70813 1.66438 4.68625 4.68625C1.66438 7.70813 0 11.7262 0 16C0 20.2738 1.66438 24.2919 4.68625 27.3137C7.70813 30.3356 11.7262 32 16 32C20.2738 32 24.2919 30.3356 27.3138 27.3137C30.3356 24.2919 32 20.2738 32 16C32 11.7262 30.3356 7.70813 27.3138 4.68625ZM25.9881 25.9881C25.3781 26.5981 24.7219 27.145 24.0281 27.6262C23.9388 27.6887 23.8144 27.6594 23.76 27.565L23.0625 26.3562C23.0106 26.2669 22.8963 26.2356 22.8063 26.2875L21.5069 27.0375C21.4175 27.0894 21.3863 27.2038 21.4381 27.2931L22.1375 28.5044C22.1919 28.5988 22.155 28.72 22.0569 28.7669C20.5238 29.4956 18.8625 29.9419 17.1388 30.0781C17.03 30.0869 16.9375 30 16.9375 29.8912V28.4994C16.9375 28.3956 16.8538 28.3119 16.75 28.3119H15.25C15.1462 28.3119 15.0625 28.3956 15.0625 28.4994V29.8912C15.0625 30 14.97 30.0869 14.8613 30.0781C13.1375 29.9412 11.4769 29.4956 9.94313 28.7669C9.845 28.72 9.80813 28.5988 9.8625 28.5044L10.5619 27.2931C10.6138 27.2038 10.5831 27.0888 10.4931 27.0375L9.19375 26.2875C9.10438 26.2356 8.98938 26.2662 8.9375 26.3562L8.24 27.565C8.18563 27.6594 8.06125 27.6881 7.97188 27.6262C7.2775 27.145 6.62188 26.5981 6.01188 25.9881C5.40188 25.3781 4.855 24.7219 4.37375 24.0281C4.31125 23.9387 4.34063 23.8144 4.435 23.76L5.64375 23.0625C5.73313 23.0106 5.76438 22.8962 5.7125 22.8062L4.9625 21.5069C4.91063 21.4175 4.79625 21.3862 4.70688 21.4381L3.49563 22.1375C3.40125 22.1919 3.28 22.155 3.23313 22.0569C2.50438 20.5238 2.05813 18.8625 1.92188 17.1388C1.91313 17.03 2 16.9375 2.10875 16.9375H3.50063C3.60438 16.9375 3.68813 16.8538 3.68813 16.75V15.25C3.68813 15.1462 3.60438 15.0625 3.50063 15.0625H2.10875C2 15.0625 1.91313 14.97 1.92188 14.8612C2.05875 13.1375 2.50438 11.4769 3.23313 9.94312C3.28 9.845 3.40125 9.80812 3.49563 9.8625L4.70688 10.5619C4.79625 10.6137 4.91125 10.5831 4.9625 10.4931L5.7125 9.19375C5.76438 9.10437 5.73375 8.98938 5.64375 8.9375L4.435 8.24C4.34063 8.18563 4.31188 8.06125 4.37375 7.97187C4.855 7.2775 5.40188 6.62188 6.01188 6.01188C6.62188 5.40188 7.27813 4.855 7.97188 4.37375C8.06125 4.31125 8.18563 4.34062 8.24 4.435L8.9375 5.64375C8.98938 5.73313 9.10375 5.76438 9.19375 5.7125L10.4931 4.9625C10.5825 4.91062 10.6138 4.79625 10.5619 4.70687L9.8625 3.49563C9.80813 3.40125 9.845 3.28 9.94313 3.23312C11.8119 2.345 13.8694 1.87563 16 1.87563C18.1306 1.87563 20.1881 2.345 22.0569 3.23312C22.155 3.28 22.1919 3.40125 22.1375 3.49563L21.4381 4.70687C21.3863 4.79625 21.4169 4.91125 21.5069 4.9625L22.8063 5.7125C22.8956 5.76438 23.0106 5.73375 23.0625 5.64375L23.76 4.435C23.8144 4.34062 23.9388 4.31188 24.0281 4.37375C24.7225 4.855 25.3781 5.40188 25.9881 6.01188C26.5981 6.62188 27.145 7.27812 27.6263 7.97187C27.6888 8.06125 27.6594 8.18563 27.565 8.24L26.3563 8.9375C26.2669 8.98938 26.2356 9.10375 26.2875 9.19375L27.0375 10.4931C27.0894 10.5825 27.2038 10.6137 27.2931 10.5619L28.5044 9.8625C28.5988 9.80812 28.72 9.845 28.7669 9.94312C29.4956 11.4762 29.9419 13.1375 30.0781 14.8612C30.0869 14.97 30 15.0625 29.8913 15.0625H28.4994C28.3956 15.0625 28.3119 15.1462 28.3119 15.25V16.75C28.3119 16.8538 28.3956 16.9375 28.4994 16.9375H29.8913C30 16.9375 30.0869 17.03 30.0781 17.1388C29.9412 18.8625 29.4956 20.5231 28.7669 22.0569C28.72 22.155 28.5988 22.1919 28.5044 22.1375L27.2931 21.4381C27.2038 21.3862 27.0888 21.4169 27.0375 21.5069L26.2875 22.8062C26.2356 22.8956 26.2663 23.0106 26.3563 23.0625L27.565 23.76C27.6594 23.8144 27.6881 23.9387 27.6263 24.0281C27.145 24.7225 26.5975 25.3781 25.9881 25.9881Z" fill="url(#paint0_linear_814_1047)"/>
<path d="M10.375 21.9375H21.625C21.7288 21.9375 21.8125 21.8538 21.8125 21.75V10.5C21.8125 10.3963 21.7288 10.3125 21.625 10.3125H10.375C10.2713 10.3125 10.1875 10.3963 10.1875 10.5V21.75C10.1875 21.8538 10.2713 21.9375 10.375 21.9375ZM12.25 12.1875H19.75C19.8538 12.1875 19.9375 12.2713 19.9375 12.375V13.875C19.9375 13.9787 19.8538 14.0625 19.75 14.0625H12.25C12.1463 14.0625 12.0625 13.9787 12.0625 13.875V12.375C12.0625 12.2713 12.1463 12.1875 12.25 12.1875ZM12.25 15.9375H19.75C19.8538 15.9375 19.9375 16.0212 19.9375 16.125V19.875C19.9375 19.9788 19.8538 20.0625 19.75 20.0625H15.8125C15.7087 20.0625 15.625 19.9788 15.625 19.875V18.375C15.625 18.2712 15.5413 18.1875 15.4375 18.1875H13.9375C13.8338 18.1875 13.75 18.2712 13.75 18.375V19.875C13.75 19.9788 13.6662 20.0625 13.5625 20.0625H12.25C12.1463 20.0625 12.0625 19.9788 12.0625 19.875V16.125C12.0625 16.0212 12.1463 15.9375 12.25 15.9375Z" fill="url(#paint1_linear_814_1047)"/>
<path d="M16.1327 7.02068L16.9858 7.87381C17.0589 7.94693 17.1777 7.94693 17.2508 7.87381L18.3114 6.81318C18.3845 6.74006 18.3845 6.62131 18.3114 6.54818L16.132 4.36881C16.0589 4.29568 15.9402 4.29568 15.867 4.36881L13.6877 6.54818C13.6145 6.62131 13.6145 6.74006 13.6877 6.81318L14.7483 7.87381C14.8214 7.94693 14.9402 7.94693 15.0133 7.87381L15.8664 7.02068C15.9395 6.94756 16.0583 6.94756 16.1314 7.02068H16.1327Z" fill="url(#paint2_linear_814_1047)"/>
<defs>
<linearGradient id="paint0_linear_814_1047" x1="16" y1="-9.43308e-07" x2="2.47357" y2="54.7221" gradientUnits="userSpaceOnUse">
<stop stop-color="#C49A6C"/>
<stop offset="1" stop-color="#885B2B"/>
</linearGradient>
<linearGradient id="paint1_linear_814_1047" x1="16" y1="10.3125" x2="11.0861" y2="30.192" gradientUnits="userSpaceOnUse">
<stop stop-color="#C49A6C"/>
<stop offset="1" stop-color="#885B2B"/>
</linearGradient>
<linearGradient id="paint2_linear_814_1047" x1="15.9995" y1="4.31396" x2="14.804" y2="10.6473" gradientUnits="userSpaceOnUse">
<stop stop-color="#C49A6C"/>
<stop offset="1" stop-color="#885B2B"/>
</linearGradient>
</defs>
</svg>
