<svg width="32" height="25" viewBox="0 0 32 25" fill="none" xmlns="http://www.w3.org/2000/svg">
<path d="M31.9006 17.7176L22.4396 12.7795C22.3077 12.7108 22.3077 12.5221 22.4396 12.4533L31.805 7.56465C31.895 7.51778 31.93 7.40653 31.8831 7.31653L29.43 2.616C29.3832 2.526 29.2719 2.491 29.1819 2.53787L28.1563 3.07286C28.0663 3.11974 27.9551 3.08474 27.9082 2.99474L26.397 0.0991722C26.3564 0.0210488 26.2651 -0.0170757 26.1807 0.00792383L19.7315 1.94664C18.3184 2.37163 17.0697 3.20974 16.1403 4.33034C16.0672 4.41909 15.9316 4.41909 15.8584 4.33034C14.9291 3.20974 13.6804 2.371 12.2673 1.94664L5.81801 0.00792383C5.73364 -0.0177007 5.64301 0.0204238 5.60177 0.0991722L4.09054 2.99474C4.04367 3.08474 3.93242 3.11974 3.84242 3.07286L2.81682 2.53787C2.72682 2.491 2.61557 2.526 2.5687 2.616L0.115623 7.31591C0.0687487 7.40591 0.103748 7.51715 0.193746 7.56403L9.55919 12.4527C9.69106 12.5214 9.69106 12.7102 9.55919 12.7789L0.0987481 17.7176C0.0381243 17.7495 0 17.812 0 17.8807V23.8618C0 24 0.146872 24.0887 0.26937 24.025L15.9147 15.8589C15.9678 15.8307 16.0316 15.8307 16.0853 15.8589L31.7306 24.025C31.8531 24.0887 32 24 32 23.8618V17.8807C32 17.812 31.9619 17.7495 31.9013 17.7176H31.9006ZM29.2757 6.76967L20.1859 11.514C20.1327 11.5421 20.069 11.5421 20.0152 11.514L18.3378 10.6383C18.2059 10.5696 18.2059 10.3808 18.3378 10.3121L28.3863 5.0672C28.4763 5.02033 28.5876 5.05533 28.6344 5.14532L29.3526 6.52155C29.3994 6.61155 29.3644 6.72279 29.2744 6.76967H29.2757ZM6.54737 2.341C6.588 2.26288 6.67924 2.22476 6.76362 2.24976L11.7279 3.74223C13.2072 4.18659 14.4453 5.2372 15.1253 6.62404L15.3322 7.04591C15.3628 7.10904 15.4272 7.14903 15.4972 7.14903H16.5022C16.5722 7.14903 16.6365 7.10904 16.6672 7.04591L16.874 6.62404C17.554 5.2372 18.7921 4.18722 20.2715 3.74223L25.2358 2.24976C25.3201 2.22413 25.4108 2.26226 25.452 2.341L26.2457 3.86222C26.2926 3.95222 26.2576 4.06347 26.1676 4.11034L16.0847 9.37337C16.0316 9.40149 15.9678 9.40149 15.9141 9.37337L5.83114 4.11034C5.74114 4.06347 5.70614 3.95222 5.75301 3.86222L6.54675 2.341H6.54737ZM1.87496 20.7681V19.0169C1.87496 18.9482 1.91309 18.8857 1.97371 18.8538L11.8129 13.7183C11.866 13.6902 11.9298 13.6902 11.9835 13.7183L13.661 14.5939C13.7929 14.6626 13.7929 14.8514 13.661 14.9201L2.14433 20.9313C2.02184 20.995 1.87496 20.9063 1.87496 20.7681ZM29.855 20.9313L2.7237 6.76967C2.6337 6.72279 2.5987 6.61155 2.64557 6.52155L3.36368 5.14532C3.41056 5.05533 3.52181 5.02033 3.6118 5.0672L30.025 18.8538C30.0857 18.8857 30.1238 18.9482 30.1238 19.0169V20.7681C30.1238 20.9063 29.9769 20.995 29.8544 20.9313H29.855Z" fill="url(#paint0_linear_814_1046)"/>
<defs>
<linearGradient id="paint0_linear_814_1046" x1="16" y1="-7.08837e-07" x2="8.1658" y2="42.1775" gradientUnits="userSpaceOnUse">
<stop stop-color="#C49A6C"/>
<stop offset="1" stop-color="#885B2B"/>
</linearGradient>
</defs>
</svg>
