<svg width="21" height="32" viewBox="0 0 21 32" fill="none" xmlns="http://www.w3.org/2000/svg">
<path d="M0 0.218783V29.4743C0 29.5953 0.0977935 29.6931 0.218782 29.6931H7.81287C7.87117 29.6931 7.92634 29.7163 7.96771 29.757L10.1468 31.9361C10.232 32.0213 10.3706 32.0213 10.4565 31.9361L12.6355 29.757C12.6763 29.7163 12.732 29.6931 12.7903 29.6931H20.3844C20.5054 29.6931 20.6032 29.5953 20.6032 29.4743V0.218783C20.6032 0.097794 20.5054 0 20.3844 0H0.218782C0.0977935 0 0 0.097794 0 0.218783ZM18.5038 27.8124H12.0111C11.9528 27.8124 11.8977 27.8356 11.8563 27.8763L10.4565 29.2762C10.3712 29.3614 10.2326 29.3614 10.1468 29.2762L8.74694 27.8763C8.70619 27.8356 8.65039 27.8124 8.59209 27.8124H2.09944C1.97845 27.8124 1.88066 27.7146 1.88066 27.5936V2.09944C1.88066 1.97845 1.97845 1.88066 2.09944 1.88066H18.5038C18.6248 1.88066 18.7226 1.97845 18.7226 2.09944V27.5936C18.7226 27.7146 18.6248 27.8124 18.5038 27.8124Z" fill="url(#paint0_linear_814_1104)"/>
<path d="M6.40963 14.1977H8.59871C8.65701 14.1977 8.71219 14.2209 8.75356 14.2616L10.1465 15.6546C10.2317 15.7398 10.3703 15.7398 10.4562 15.6546L11.8491 14.2616C11.8899 14.2209 11.9457 14.1977 12.004 14.1977H13.9743C14.0952 14.1977 14.193 14.0999 14.193 13.9789V12.0086C14.193 11.9503 14.2162 11.8951 14.257 11.8538L15.6499 10.4608C15.7352 10.3756 15.7352 10.237 15.6499 10.1511L14.257 8.7582C14.2162 8.71745 14.193 8.66166 14.193 8.60336V6.63306C14.193 6.51207 14.0952 6.41427 13.9743 6.41427H12.004C11.9457 6.41427 11.8905 6.39108 11.8491 6.35033L10.4556 4.95676C10.3703 4.87151 10.2317 4.87151 10.1459 4.95676L8.75293 6.3497C8.71219 6.39045 8.65639 6.41365 8.59809 6.41365H6.62779C6.5068 6.41365 6.40901 6.51144 6.40901 6.63243V8.60273C6.40901 8.66103 6.38581 8.7162 6.34506 8.75757L4.95213 10.1505C4.86687 10.2358 4.86687 10.3743 4.95213 10.4602L6.34506 11.8531C6.38581 11.8939 6.40901 11.9497 6.40901 12.008V14.1971L6.40963 14.1977ZM8.29029 9.38195V8.51309C8.29029 8.3921 8.38809 8.2943 8.50907 8.2943H9.37794C9.43624 8.2943 9.4914 8.27111 9.53278 8.23036L10.1471 7.61601C10.2324 7.53076 10.3709 7.53076 10.4568 7.61601L11.0711 8.23036C11.1119 8.27111 11.1677 8.2943 11.226 8.2943H12.0949C12.2158 8.2943 12.3136 8.3921 12.3136 8.51309V9.38195C12.3136 9.44025 12.3368 9.49542 12.3776 9.53679L12.9919 10.1511C13.0772 10.2364 13.0772 10.3749 12.9919 10.4608L12.3776 11.0752C12.3368 11.1159 12.3136 11.1717 12.3136 11.23V12.0989C12.3136 12.2199 12.2158 12.3177 12.0949 12.3177H11.226C11.1677 12.3177 11.1125 12.3408 11.0711 12.3816L10.4568 12.9959C10.3716 13.0812 10.233 13.0812 10.1471 12.9959L9.53278 12.3816C9.49203 12.3408 9.43624 12.3177 9.37794 12.3177H8.50907C8.38809 12.3177 8.29029 12.2199 8.29029 12.0989V11.23C8.29029 11.1717 8.2671 11.1165 8.22635 11.0752L7.612 10.4608C7.52674 10.3756 7.52674 10.237 7.612 10.1511L8.22635 9.53679C8.2671 9.49604 8.29029 9.44025 8.29029 9.38195Z" fill="url(#paint1_linear_814_1104)"/>
<path d="M5.04251 17.7278H15.5617C15.6826 17.7278 15.7804 17.8256 15.7804 17.9466V19.3897C15.7804 19.5106 15.6826 19.6084 15.5617 19.6084H5.04251C4.92152 19.6084 4.82373 19.5106 4.82373 19.3897V17.9466C4.82373 17.8256 4.92152 17.7278 5.04251 17.7278Z" fill="url(#paint2_linear_814_1104)"/>
<path d="M5.04251 21.489H15.5617C15.6826 21.489 15.7804 21.5868 15.7804 21.7078V23.1509C15.7804 23.2719 15.6826 23.3697 15.5617 23.3697H5.04251C4.92152 23.3697 4.82373 23.2719 4.82373 23.1509V21.7078C4.82373 21.5868 4.92152 21.489 5.04251 21.489Z" fill="url(#paint3_linear_814_1104)"/>
<defs>
<linearGradient id="paint0_linear_814_1104" x1="10.3016" y1="-9.43308e-07" x2="-9.12706" y2="50.6066" gradientUnits="userSpaceOnUse">
<stop stop-color="#C49A6C"/>
<stop offset="1" stop-color="#885B2B"/>
</linearGradient>
<linearGradient id="paint1_linear_814_1104" x1="10.301" y1="4.89282" x2="5.72499" y2="23.4054" gradientUnits="userSpaceOnUse">
<stop stop-color="#C49A6C"/>
<stop offset="1" stop-color="#885B2B"/>
</linearGradient>
<linearGradient id="paint2_linear_814_1104" x1="10.3021" y1="17.7278" x2="10.1576" y2="21.1342" gradientUnits="userSpaceOnUse">
<stop stop-color="#C49A6C"/>
<stop offset="1" stop-color="#885B2B"/>
</linearGradient>
<linearGradient id="paint3_linear_814_1104" x1="10.3021" y1="21.489" x2="10.1576" y2="24.8954" gradientUnits="userSpaceOnUse">
<stop stop-color="#C49A6C"/>
<stop offset="1" stop-color="#885B2B"/>
</linearGradient>
</defs>
</svg>
