<svg width="40" height="40" viewBox="0 0 40 40" fill="none" xmlns="http://www.w3.org/2000/svg">
<mask id="mask0_917_4089" style="mask-type:alpha" maskUnits="userSpaceOnUse" x="0" y="0" width="40" height="40">
<rect width="40" height="40" fill="#D9D9D9"/>
</mask>
<g mask="url(#mask0_917_4089)">
<path d="M6.26046 28.0428V31.5599C6.26046 31.6881 6.31389 31.8056 6.42075 31.9124C6.52759 32.0193 6.64512 32.0727 6.77334 32.0727H33.2263C33.3545 32.0727 33.472 32.0193 33.5788 31.9124C33.6857 31.8056 33.7391 31.6881 33.7391 31.5599V28.0428H6.26046ZM6.77334 10.8655H12.1356C11.9967 10.6155 11.8827 10.3281 11.7937 10.0033C11.7047 9.67853 11.6602 9.36187 11.6602 9.05331C11.6602 7.92923 12.0512 6.97803 12.8332 6.19973C13.6152 5.42139 14.5604 5.03223 15.6686 5.03223C16.3739 5.03223 17.0294 5.21377 17.6349 5.57685C18.2405 5.93994 18.7355 6.39656 19.12 6.94673L19.9776 8.19035L20.8353 6.94673C21.2306 6.3755 21.7231 5.91362 22.3128 5.56106C22.9024 5.20851 23.5426 5.03223 24.2331 5.03223C25.3674 5.03223 26.3247 5.41951 27.105 6.19406C27.8852 6.96864 28.2753 7.92658 28.2753 9.06785C28.2753 9.3596 28.2363 9.65362 28.1583 9.9499C28.0803 10.2462 27.9666 10.5514 27.817 10.8655H33.2263C33.9426 10.8655 34.5561 11.1209 35.0669 11.6316C35.5777 12.1424 35.8331 12.756 35.8331 13.4723V31.5599C35.8331 32.2762 35.5777 32.8897 35.0669 33.4005C34.5561 33.9113 33.9426 34.1667 33.2263 34.1667H6.77334C6.057 34.1667 5.44345 33.9113 4.93267 33.4005C4.42189 32.8897 4.1665 32.2762 4.1665 31.5599V13.4723C4.1665 12.756 4.42189 12.1424 4.93267 11.6316C5.44345 11.1209 6.057 10.8655 6.77334 10.8655ZM6.26046 24.0129H33.7391V13.4723C33.7391 13.3441 33.6857 13.2266 33.5788 13.1197C33.472 13.0129 33.3545 12.9595 33.2263 12.9595H23.2091L26.3266 17.2875C26.5068 17.5239 26.5725 17.7813 26.5238 18.0598C26.475 18.3383 26.3324 18.5641 26.0959 18.7372C25.8594 18.9103 25.6019 18.9749 25.3234 18.9309C25.0449 18.887 24.8209 18.7437 24.6515 18.5011L19.9678 12.0727L15.284 18.5011C15.1191 18.7437 14.8991 18.887 14.624 18.9309C14.3489 18.9749 14.0903 18.9103 13.8481 18.7372C13.606 18.5641 13.4609 18.3383 13.4128 18.0598C13.3647 17.7813 13.4272 17.5239 13.6003 17.2875L16.72 12.9595H6.77334C6.64512 12.9595 6.52759 13.0129 6.42075 13.1197C6.31389 13.2266 6.26046 13.3441 6.26046 13.4723V24.0129ZM15.6844 10.9894C16.2216 10.9894 16.6781 10.802 17.0538 10.4272C17.4295 10.0524 17.6174 9.59634 17.6174 9.05915C17.6174 8.52192 17.4299 8.06546 17.0551 7.68977C16.6803 7.31405 16.2242 7.12619 15.687 7.12619C15.1499 7.12619 14.6934 7.3136 14.3177 7.68844C13.942 8.06327 13.7541 8.5193 13.7541 9.05652C13.7541 9.59371 13.9415 10.0502 14.3164 10.4259C14.6912 10.8016 15.1472 10.9894 15.6844 10.9894ZM24.2327 10.9894C24.7794 10.9894 25.2409 10.802 25.6171 10.4272C25.9933 10.0524 26.1814 9.59634 26.1814 9.05915C26.1814 8.52192 25.9933 8.06546 25.6171 7.68977C25.2409 7.31405 24.7794 7.12619 24.2327 7.12619C23.7106 7.12619 23.261 7.3136 22.8838 7.68844C22.5067 8.06327 22.3181 8.5193 22.3181 9.05652C22.3181 9.59371 22.5067 10.0502 22.8838 10.4259C23.261 10.8016 23.7106 10.9894 24.2327 10.9894Z" fill="url(#paint0_linear_917_4089)"/>
</g>
<defs>
<linearGradient id="paint0_linear_917_4089" x1="19.9998" y1="5.03223" x2="8.56832" y2="55.2984" gradientUnits="userSpaceOnUse">
<stop stop-color="#C49A6C"/>
<stop offset="1" stop-color="#885B2B"/>
</linearGradient>
</defs>
</svg>
