<svg width="20" height="32" viewBox="0 0 20 32" fill="none" xmlns="http://www.w3.org/2000/svg">
<g clip-path="url(#clip0_814_1056)">
<path d="M19.3798 26.341C19.3148 26.1402 19.1217 26.0011 18.9105 26.0101L17.0875 26.0629H16.7612C11.5914 25.7797 8.72752 22.8726 8.56981 20.1497C8.53118 19.3476 8.72172 18.1477 9.8521 16.989C10.9793 15.8335 12.81 15.007 15.1473 14.5976C15.1499 14.5976 15.1544 14.5963 15.1564 14.5957C15.1564 14.5957 15.1564 14.5957 15.157 14.5957L15.943 14.4508C16.1194 14.418 16.2616 14.2912 16.3138 14.12L17.9276 8.82922C17.972 8.68438 17.945 8.52538 17.8548 8.40436C17.7647 8.2827 17.6212 8.20996 17.4699 8.20996H2.74413C2.56067 8.20996 2.39652 8.31231 2.31477 8.47646L2.16157 8.78545C2.15899 8.7906 2.15513 8.79832 2.1532 8.80347L2.14998 8.8112C1.6453 9.94157 1.17281 11.0134 0.744736 11.9963C0.587025 12.3587 0.467293 12.6355 0.38554 12.8248L0.267739 13.0971C0.267739 13.0971 0.267095 13.0984 0.266452 13.0997L0.25744 13.119C0.244565 13.1454 0.233622 13.173 0.225897 13.2007L0.0173318 13.9391C-0.0232226 14.0826 0.00638853 14.239 0.0965094 14.3588C0.18663 14.4772 0.328893 14.548 0.477592 14.548H3.89189C2.70551 15.8084 1.88605 17.3411 1.49982 19.0361C1.03312 21.085 1.22302 23.2724 2.04827 25.3606C2.04827 25.3619 2.05085 25.367 2.05149 25.3683C2.99583 27.6767 4.86004 29.5403 7.44329 30.7563C9.34227 31.6504 11.0217 31.9073 11.2496 31.9394L11.4266 31.9839C11.4659 31.9935 11.5052 31.9987 11.5451 31.9987C11.6404 31.9987 11.7343 31.9703 11.8148 31.9156L19.1925 26.8837C19.3669 26.7646 19.4435 26.5412 19.3785 26.3397L19.3798 26.341ZM6.11594 15.2593C6.11594 15.2593 6.11852 15.2568 6.12045 15.2555C6.59423 14.866 7.06736 14.5345 7.56753 14.2416C7.57011 14.2403 7.57333 14.2384 7.5759 14.2365C7.5759 14.2365 7.57654 14.2365 7.57719 14.2358C8.00655 13.9751 8.25889 13.3829 7.93831 12.8422C7.7967 12.6027 7.56303 12.4276 7.29846 12.3607C7.04483 12.2969 6.77897 12.3369 6.55367 12.4727C6.19834 12.6806 5.8591 12.9091 5.55204 13.1293C5.40463 12.7958 5.08084 12.5242 4.6341 12.5242H2.74928C2.85421 12.2892 2.96622 12.0369 3.08144 11.7768L3.08981 11.7581C3.08981 11.7581 3.09045 11.7569 3.0911 11.7556C3.30353 11.276 3.52239 10.7829 3.72967 10.3246H15.3392L14.6188 12.6838C11.8373 13.1898 9.70984 14.2081 8.29365 15.7125C7.06479 17.0173 6.43909 18.6627 6.53179 20.346C6.62899 22.0866 7.48385 23.7932 8.9393 25.1508C10.3117 26.4318 12.1322 27.3323 14.2436 27.7829L11.202 29.8538C10.5145 29.7096 9.30944 29.3897 8.02779 28.7389C6.03548 27.7263 4.66693 26.3307 3.96076 24.5901C3.96076 24.5888 3.95948 24.5875 3.95948 24.5862C2.54844 21.1236 3.39558 17.4634 6.11787 15.26L6.11594 15.2593Z" fill="url(#paint0_linear_814_1056)"/>
<path d="M8.74493 7.44527C8.8357 7.54827 8.96637 7.60749 9.10413 7.60749C9.24189 7.60749 9.3732 7.54827 9.46333 7.44527L12.3942 4.12046C12.5538 3.93957 12.5538 3.66728 12.3942 3.48704L9.46397 0.162861C9.37321 0.0592223 9.24189 0 9.10413 0C8.96637 0 8.8357 0.0592223 8.74493 0.162218L5.81407 3.48704C5.65507 3.66728 5.65507 3.93957 5.81407 4.12046L8.74493 7.44527ZM7.60941 3.80375L9.07452 2.13329L10.5396 3.80375L9.07452 5.4742L7.60941 3.80375Z" fill="url(#paint1_linear_814_1056)"/>
</g>
<defs>
<linearGradient id="paint0_linear_814_1056" x1="9.70049" y1="8.20996" x2="-2.28129" y2="47.7444" gradientUnits="userSpaceOnUse">
<stop stop-color="#C49A6C"/>
<stop offset="1" stop-color="#885B2B"/>
</linearGradient>
<linearGradient id="paint1_linear_814_1056" x1="9.10437" y1="-2.24257e-07" x2="5.56672" y2="12.8286" gradientUnits="userSpaceOnUse">
<stop stop-color="#C49A6C"/>
<stop offset="1" stop-color="#885B2B"/>
</linearGradient>
<clipPath id="clip0_814_1056">
<rect width="19.4024" height="32" fill="white"/>
</clipPath>
</defs>
</svg>
