<svg width="32" height="39" viewBox="0 0 32 39" fill="none" xmlns="http://www.w3.org/2000/svg">
<path d="M32 16C32 14.1768 30.5699 12.6819 28.7718 12.5775C30.2766 11.5886 30.768 9.57867 29.856 8C28.9364 6.40762 26.9501 5.84457 25.3493 6.65067C26.1577 5.04229 25.5787 3.05524 24 2.144C22.4091 1.22514 20.4069 1.728 19.4225 3.22819C19.3181 1.43086 17.8232 0 16 0C14.1768 0 12.6819 1.43086 12.5775 3.22819C11.5931 1.728 9.59086 1.22514 8 2.144C6.42133 3.05524 5.84229 5.04229 6.65067 6.65067C5.04762 5.84381 3.06285 6.40914 2.14399 8C1.23275 9.57867 1.72342 11.5886 3.22818 12.5775C1.43085 12.6819 0 14.1768 0 16C0 17.8232 1.43009 19.3181 3.22818 19.4225C1.72342 20.4114 1.23199 22.4213 2.14399 24C3.05066 25.5703 5.02553 26.1676 6.65067 25.3493C5.84229 26.9585 6.42133 28.9448 8 29.856C9.60305 30.7817 11.6015 30.259 12.5775 28.7718C12.624 29.5703 12.9448 30.2964 13.4469 30.8571C12.9029 31.4644 12.5707 32.2651 12.5707 33.1429V38.7604C12.5707 38.8983 12.6819 39.0095 12.8198 39.0095H19.1787C19.3166 39.0095 19.4278 38.8983 19.4278 38.7604V33.1429C19.4278 32.2651 19.0956 31.4644 18.5516 30.8571C19.0537 30.2964 19.3745 29.5703 19.4209 28.7718C20.4038 30.269 22.4046 30.7764 23.9985 29.856C25.5771 28.9448 26.1569 26.9577 25.3478 25.3493C26.9737 26.1684 28.9486 25.5695 29.8545 24C30.7657 22.4213 30.275 20.4114 28.7703 19.4225C30.5676 19.3181 31.9985 17.8232 31.9985 16H32ZM26.3154 8.72457C26.8602 8.40991 27.5596 8.59352 27.8766 9.14286C28.1912 9.68838 28.0038 10.3893 27.4583 10.704C26.9112 11.0194 26.2133 10.8328 25.8971 10.2857C25.5825 9.74019 25.7699 9.03924 26.3154 8.72457ZM21.296 4.54095C21.6107 3.99543 22.3109 3.808 22.8571 4.12267C23.4034 4.43733 23.5901 5.13829 23.2754 5.68381C22.96 6.23086 22.2613 6.41829 21.7143 6.1021C21.1688 5.78667 20.9813 5.08648 21.296 4.54095ZM15.8507 2.29486C16.5973 2.19962 17.2282 2.83048 17.1329 3.57714C17.0682 4.0861 16.6575 4.49676 16.1486 4.56152C15.4019 4.65676 14.771 4.02591 14.8663 3.27924C14.931 2.77029 15.3417 2.35962 15.8507 2.29486ZM9.14286 4.12267C9.69219 3.80571 10.3909 3.99924 10.704 4.54095C11.0194 5.08648 10.832 5.78743 10.2857 6.1021C9.73867 6.41752 9.04076 6.23086 8.72457 5.68381C8.40914 5.13829 8.59657 4.43733 9.14286 4.12267ZM4.12266 9.14286C4.43809 8.59733 5.13599 8.40838 5.6838 8.72457C6.22932 9.03924 6.41675 9.74019 6.10208 10.2857C5.78589 10.8328 5.08799 11.0202 4.54094 10.704C3.99542 10.3893 3.80799 9.68914 4.12266 9.14286ZM2.29485 16.1493C2.19961 15.4027 2.83047 14.7718 3.57714 14.867C4.08609 14.9318 4.49675 15.3425 4.56151 15.8514C4.65675 16.5981 4.02591 17.229 3.27924 17.1337C2.77029 17.069 2.35961 16.6583 2.29485 16.1493ZM5.6838 23.2754C5.13675 23.5916 4.43885 23.4042 4.12266 22.8571C3.80799 22.3116 3.99542 21.6107 4.54094 21.296C5.08875 20.979 5.78665 21.168 6.10208 21.7143C6.41675 22.2598 6.22932 22.9608 5.6838 23.2754ZM10.7032 27.4591C10.3886 28.0046 9.68838 28.192 9.14209 27.8773C8.59581 27.5627 8.40914 26.8617 8.72381 26.3162C9.03924 25.7707 9.73638 25.5817 10.285 25.8979C10.8305 26.2133 11.0179 26.9135 10.7032 27.4591ZM14.8663 28.7208C14.771 27.9741 15.4019 27.3432 16.1486 27.4385C16.6575 27.5032 17.0682 27.9139 17.1329 28.4229C17.2282 29.1695 16.5973 29.8004 15.8507 29.7051C15.3417 29.6404 14.931 29.2297 14.8663 28.7208ZM16.893 36.7238H15.1055C14.9676 36.7238 14.8564 36.6126 14.8564 36.4747V33.1741C14.8564 32.5882 15.2846 32.0739 15.8659 32.0076C16.5554 31.9291 17.1421 32.4693 17.1421 33.1429V36.4747C17.1421 36.6126 17.0309 36.7238 16.893 36.7238ZM18.864 26.6903C18.2507 25.7592 17.1962 25.1429 15.9992 25.1429C14.8023 25.1429 13.7486 25.7592 13.1345 26.6903C13.0689 25.5771 12.464 24.5158 11.4278 23.9177C10.4046 23.3272 9.19238 23.3143 8.17524 23.8225C8.67353 22.8259 8.67886 21.6061 8.08153 20.5714C7.49029 19.5482 6.44724 18.931 5.312 18.8625C6.24152 18.2491 6.85638 17.1954 6.85638 16C6.85638 14.8046 6.24152 13.7516 5.312 13.1375C6.44266 13.0697 7.48801 12.4556 8.08153 11.4286C8.67886 10.3939 8.67353 9.1741 8.17524 8.17752C9.17867 8.67886 10.3916 8.68038 11.4278 8.08229C12.464 7.48419 13.0689 6.42286 13.1345 5.30971C13.7478 6.24076 14.8023 6.85714 15.9992 6.85714C17.1962 6.85714 18.2499 6.24076 18.864 5.30971C18.9295 6.42286 19.5345 7.48419 20.5707 8.08229C21.6046 8.67962 22.8183 8.67962 23.8232 8.17752C23.3249 9.1741 23.3196 10.3939 23.9169 11.4286C24.5097 12.4549 25.555 13.0697 26.6865 13.1375C25.757 13.7509 25.1421 14.8046 25.1421 16C25.1421 17.1954 25.757 18.2484 26.6865 18.8625C25.5528 18.931 24.5089 19.5467 23.9169 20.5714C23.3196 21.6061 23.3249 22.8259 23.8232 23.8225C22.8076 23.3151 21.5954 23.3265 20.5707 23.9177C19.5345 24.5158 18.9295 25.5771 18.864 26.6903ZM22.8564 27.8766C22.3109 28.1912 21.6099 28.0038 21.2952 27.4583C20.9798 26.9128 21.1672 26.2118 21.7135 25.8971C22.2613 25.581 22.9592 25.7691 23.2747 26.3154C23.5901 26.8617 23.4027 27.5619 22.8564 27.8766ZM27.8766 22.8564C27.5604 23.4034 26.8625 23.5909 26.3154 23.2747C25.7699 22.96 25.5825 22.2598 25.8971 21.7135C26.2126 21.168 26.9105 20.979 27.4583 21.2952C28.0038 21.6099 28.1912 22.3101 27.8766 22.8564ZM28.72 17.133C27.9733 17.2282 27.3425 16.5973 27.4377 15.8507C27.5025 15.3417 27.9131 14.931 28.4221 14.8663C29.1688 14.771 29.7996 15.4019 29.7044 16.1486C29.6396 16.6575 29.229 17.0682 28.72 17.133Z" fill="url(#paint0_linear_814_1069)"/>
<defs>
<linearGradient id="paint0_linear_814_1069" x1="16" y1="-1.14994e-06" x2="-3.55402" y2="64.8925" gradientUnits="userSpaceOnUse">
<stop stop-color="#C49A6C"/>
<stop offset="1" stop-color="#885B2B"/>
</linearGradient>
</defs>
</svg>
